Coordinates
version=1
nRows=6
nColumns=63
inDegrees=yes

Units are S.I. units (second, meters, Newtons, ...)
If the header above contains a line with 'inDegrees', this indicates whether rotational values are in degrees (yes) or radians (no).

endheader
time	pelvis_tilt	pelvis_list	pelvis_rotation	pelvis_tx	pelvis_ty	pelvis_tz	hip_flexion_r	hip_adduction_r	hip_rotation_r	knee_angle_r	knee_angle_r_beta	ankle_angle_r	subtalar_angle_r	mtp_angle_r	hip_flexion_l	hip_adduction_l	hip_rotation_l	knee_angle_l	knee_angle_l_beta	ankle_angle_l	subtalar_angle_l	mtp_angle_l	L5_S1_Flex_Ext	L5_S1_Lat_Bending	L5_S1_axial_rotation	L4_L5_Flex_Ext	L4_L5_Lat_Bending	L4_L5_axial_rotation	L3_L4_Flex_Ext	L3_L4_Lat_Bending	L3_L4_axial_rotation	L2_L3_Flex_Ext	L2_L3_Lat_Bending	L2_L3_axial_rotation	L1_L2_Flex_Ext	L1_L2_Lat_Bending	L1_L2_axial_rotation	L1_T12_Flex_Ext	L1_T12_Lat_Bending	L1_T12_axial_rotation	Abs_r3	Abs_r2	Abs_r1	Abs_t1	Abs_t2	neck_flexion	neck_bending	neck_rotation	arm_flex_r	arm_add_r	arm_rot_r	elbow_flex_r	pro_sup_r	wrist_flex_r	wrist_dev_r	arm_flex_l	arm_add_l	arm_rot_l	elbow_flex_l	pro_sup_l	wrist_flex_l	wrist_dev_l
      4.13333333	     -3.99674513	      1.68882195	     99.33410200	      0.29505448	      0.98135437	      0.24720818	     -9.88490699	     -1.10742225	    -18.91543856	      1.43485031	      0.02504286	     15.22496504	     15.03673030	      0.00000000	     -8.33935058	      1.80286652	      5.70700619	      0.35390449	      0.00617680	     11.57152575	    -11.09050250	      0.00000000	     -0.29464000	     -0.57487999	     -0.44405717	     -0.54717595	     -0.76459038	     -0.47181075	     -0.48406406	     -1.39776320	     -0.47181075	     -0.33674406	     -1.39776320	     -0.38855003	     -0.27360271	     -1.17229527	     -0.36079645	     -0.16835730	     -0.89048910	     -0.33304288	     -2.10458408	     -6.50315737	     -2.46971279	      0.00000000	      0.00000000	      0.06467777	      5.89375679	      7.97922632	     18.62761414	      2.38915383	     43.80817490	    149.88991696	     80.51056592	    -10.10630345	      5.39656966	      5.84945564	    -12.95016104	     40.76236653	     36.48730125	     87.03275819	    -16.00151475	      2.57021467
      4.15000000	     -3.99156351	      1.66082958	     99.37418232	      0.29514288	      0.98139731	      0.24720862	     -9.93292052	     -1.04177636	    -18.37096596	      1.32454488	      0.02311767	     14.86274784	     13.90214714	      0.00000000	     -8.31637497	      1.77420606	      4.78656118	      0.36651049	      0.00639681	     11.99945820	     -9.53523338	      0.00000000	     -0.29376309	     -0.58134219	     -0.44856514	     -0.54554744	     -0.77318511	     -0.47660047	     -0.48262338	     -1.41347540	     -0.47660047	     -0.33574184	     -1.41347540	     -0.39249450	     -0.27278841	     -1.18547299	     -0.36445918	     -0.16785623	     -0.90049905	     -0.33642386	     -2.09832038	     -6.57625911	     -2.49478476	      0.00000000	      0.00000000	      0.43207285	      5.58166185	      7.18214018	     18.52363590	      2.37285305	     43.67496636	    149.88811429	     78.49403261	     -9.24363184	      5.35563681	      5.81396976	    -12.97059371	     40.65247397	     36.51991082	     86.38732638	    -15.94596016	      2.48412500
      4.16666667	     -3.94223633	      1.65545291	     99.56098572	      0.29477899	      0.98148918	      0.24771555	     -9.87142938	     -0.99657555	    -18.90438711	      1.50019554	      0.02618335	     14.91764659	     14.03991143	      0.00000000	     -8.26728528	      1.71038059	      4.98931787	      0.37268739	      0.00650462	     11.96237405	     -9.56545653	      0.00000000	     -0.30112194	     -0.57703144	     -0.46962540	     -0.55921355	     -0.76745182	     -0.49897699	     -0.49471323	     -1.40299425	     -0.49897699	     -0.34415226	     -1.40299425	     -0.41092223	     -0.27962183	     -1.17668252	     -0.38157064	     -0.17206108	     -0.89382170	     -0.35221905	     -2.15088389	     -6.52749508	     -2.61191560	      0.00000000	      0.00000000	      0.56670448	      5.12665624	      6.53732395	     18.64187751	      2.10073205	     43.25463607	    149.88749396	     77.73758642	     -9.24560400	      5.60748718	      5.95510450	    -12.85264207	     40.62933669	     36.28798719	     87.12734932	    -15.95502169	      2.29858767
      4.18333333	     -3.94261157	      1.59663347	     99.61074666	      0.29454223	      0.98148337	      0.24774299	     -9.85899218	     -1.00483227	    -19.06161428	      1.50182166	      0.02621173	     14.95137646	     13.98045179	      0.00000000	     -8.20208784	      1.72247493	      5.03182727	      0.38248930	      0.00667570	     11.87285702	     -9.54251745	      0.00000000	     -0.29687729	     -0.57863119	     -0.46010949	     -0.55133082	     -0.76957948	     -0.48886634	     -0.48773970	     -1.40688388	     -0.48886634	     -0.33930106	     -1.40688388	     -0.40259581	     -0.27568025	     -1.17994472	     -0.37383896	     -0.16963569	     -0.89629971	     -0.34508212	     -2.12056482	     -6.54559176	     -2.55899097	      0.00000000	      0.00000000	      0.65283904	      5.13983592	      6.57679434	     18.58566993	      1.76073551	     42.83352641	    149.88443134	     77.54682733	     -9.44296166	      5.56017045	      5.96725013	    -12.81824864	     40.64474738	     36.32508117	     87.15122906	    -15.94585174	      2.29095765
      4.20000000	     -3.87439134	      1.49307437	    100.09100266	      0.29377920	      0.98152574	      0.24811153	     -9.76674670	     -0.89212401	    -19.98909796	      1.57955805	      0.02756849	     15.01545342	     14.28763243	      0.00000000	     -8.03819560	      1.61280054	      5.69861668	      0.38085638	      0.00664720	     11.66111579	     -9.75170196	      0.00000000	     -0.28441510	     -0.57879012	     -0.48843592	     -0.52818728	     -0.76979086	     -0.51896316	     -0.46726557	     -1.40727030	     -0.51896316	     -0.32505802	     -1.40727030	     -0.42738143	     -0.26410786	     -1.18026881	     -0.39685418	     -0.16251479	     -0.89654589	     -0.36632694	     -2.03154862	     -6.54738959	     -2.71653406	      0.00000000	      0.00000000	      0.50872783	      5.39231501	      5.88943166	     18.68246425	      1.18019511	     42.92882428	    149.88489546	     74.38732129	    -10.75012055	      4.63696958	      6.41428926	    -12.73776453	     41.58651000	     35.85563501	     87.31385916	    -15.60669493	      2.42969654
      4.21666667	     -3.83955114	      1.40518959	    100.25559497	      0.29330780	      0.98151799	      0.24824715	     -9.68967377	     -0.87658950	    -20.82631118	      1.60961120	      0.02809302	     15.12562219	     15.08559246	      0.00000000	     -7.92288680	      1.59346576	      6.59677021	      0.37137697	      0.00648175	     11.19105219	    -10.88488294	      0.00000000	     -0.27888191	     -0.57975048	     -0.45791889	     -0.51791160	     -0.77106814	     -0.48653882	     -0.45817509	     -1.40960532	     -0.48653882	     -0.31873414	     -1.40960532	     -0.40067903	     -0.25896974	     -1.18222718	     -0.37205910	     -0.15935313	     -0.89803350	     -0.34343917	     -1.99202562	     -6.55825340	     -2.54680749	      0.00000000	      0.00000000	      0.55734581	      5.50018548	      5.42741555	     18.52947169	      0.66187327	     42.85362836	    149.88410176	     71.68150668	    -10.71548228	      3.54158218	      6.77878090	    -12.66187195	     42.62532215	     35.50180962	     87.09714853	    -15.88014489	      2.52000015
